<?xml version="1.0" standalone="no"?>
<!DOCTYPE svg PUBLIC "-//W3C//DTD SVG 20010904//EN"
 "http://www.w3.org/TR/2001/REC-SVG-20010904/DTD/svg10.dtd">
<svg version="1.0" xmlns="http://www.w3.org/2000/svg"
 width="192.000000pt" height="192.000000pt" viewBox="0 0 192.000000 192.000000"
 preserveAspectRatio="xMidYMid meet">
<metadata>
Created by potrace 1.11, written by Peter Selinger 2001-2013
</metadata>
<g transform="translate(0.000000,192.000000) scale(0.100000,-0.100000)"
fill="#000000" stroke="none">
<path d="M2 963 l3 -958 957 -3 958 -2 0 960 0 960 -960 0 -960 0 2 -957z
m1013 757 c25 -49 60 -126 79 -172 l35 -83 -14 -65 c-20 -94 -18 -113 8 -62
11 23 24 42 29 42 8 0 55 -144 64 -198 5 -30 -2 -55 -36 -132 -66 -148 -72
-162 -63 -157 5 3 33 42 63 86 31 46 58 77 63 72 15 -15 21 -280 8 -358 l-13
-72 -74 -51 c-41 -28 -74 -53 -74 -55 0 -2 25 4 55 12 31 9 58 13 61 10 19
-19 -112 -207 -181 -258 -42 -32 -44 -37 -45 -83 0 -47 -19 -86 -42 -86 -4 0
-8 29 -8 64 l0 64 -78 78 c-52 53 -90 103 -115 151 -43 82 -39 87 42 58 22 -8
41 -11 41 -7 0 4 -27 24 -59 45 -32 20 -65 45 -74 55 -34 38 -47 312 -19 417
8 28 9 26 67 -58 32 -48 60 -85 62 -83 2 2 -21 60 -52 129 -30 69 -55 129 -55
133 0 20 63 224 69 224 4 0 18 -18 30 -41 13 -22 24 -39 26 -37 2 2 -4 40 -13
85 l-16 82 29 68 c52 125 135 284 146 278 5 -4 30 -46 54 -95z"/>
<path d="M936 1129 c-8 -249 -3 -542 13 -725 l7 -79 8 100 c13 157 22 554 16
735 -6 163 -6 162 -8 -80 -4 -469 -16 -515 -22 -80 l-5 395 -9 -266z"/>
</g>
</svg>
